# xmcd CD database file
#
# Track frame offsets:
#	150
#	11465
#	32993
#	42873
#	61255
#	72373
#	89775
#	101210
#	118535
#	134525
#	145295
#	163270
#	176738
#	195840
#	209178
#	223038
#
# Disc length: 3097 seconds
#
# Revision: 0
# Processed by: cddbd v1.4PL0 Copyright (c) Steve Scherf et al.
# Submitted via: CDex 1.50beta9
#
DISCID=fb0c1710
DTITLE=Seamus Moore - On The" Brew"
DYEAR=1990
DGENRE=Country
TTITLE0=On The "Brew"
TTITLE1=McAlpines Crew
TTITLE2=Bigs In Birmingham
TTITLE3=Roads To Kildare
TTITLE4=Races Of Killadoon
TTITLE5=Joseph McHugh
TTITLE6=The Poteen Song
TTITLE7=Mother's Always Waiting
TTITLE8=On The Dole
TTITLE9=The Long Distance Kid
TTITLE10=Cottage In The Country
TTITLE11=Hills Of Knocknashee
TTITLE12=The J C B  Song
TTITLE13=Paidns Party
TTITLE14=6 Foot Seven Woman
TTITLE15=Town Of Ballybay
EXTD=YEAR: 1990
EXTT0=
EXTT1=
EXTT2=
EXTT3=
EXTT4=
EXTT5=
EXTT6=
EXTT7=
EXTT8=
EXTT9=
EXTT10=
EXTT11=
EXTT12=
EXTT13=
EXTT14=
EXTT15=
PLAYORDER=
